<svg width="294" height="269" viewBox="0 0 294 269" fill="none" xmlns="http://www.w3.org/2000/svg">
<rect y="15" width="294" height="238" rx="20" fill="#D9D9D9"/>
<rect x="5" y="20" width="284" height="228" rx="15" stroke="#872222" stroke-opacity="0.85" stroke-width="10"/>
<path d="M149.568 217H107.25L162.216 54.0909H214.636L269.602 217H227.284L189.023 95.1364H187.75L149.568 217ZM143.92 152.886H232.375V182.795H143.92V152.886Z" fill="#BE8383" fill-opacity="0.69"/>
<path d="M61.3182 54.0909L97.75 173.409H99.1023L135.534 54.0909H179.602L124.636 217H72.2159L17.25 54.0909H61.3182Z" fill="black"/>
<path d="M156.455 152.182V168.545H112.409V152.182H156.455ZM121.636 135.455H143.864V200.045C143.864 201.409 144.076 202.515 144.5 203.364C144.955 204.182 145.606 204.773 146.455 205.136C147.303 205.47 148.318 205.636 149.5 205.636C150.348 205.636 151.242 205.561 152.182 205.409C153.152 205.227 153.879 205.076 154.364 204.955L157.727 221C156.667 221.303 155.167 221.682 153.227 222.136C151.318 222.591 149.03 222.879 146.364 223C141.152 223.242 136.682 222.636 132.955 221.182C129.258 219.697 126.424 217.394 124.455 214.273C122.515 211.152 121.576 207.227 121.636 202.5V135.455Z" fill="#D9D9D9"/>
<rect x="20" y="82" width="79" height="32" fill="#D9D9D9"/>
</svg>
